<svg xmlns="http://www.w3.org/2000/svg" width="16.5" height="23.287"><path d="M2.692 2.34A7.682 7.682 0 0 1 8.426 0a7.992 7.992 0 0 1 8.075 8.075 9.973 9.973 0 0 1-.819 3.862 27.08 27.08 0 0 1-2.106 4.1c-.819 1.287-1.638 2.457-2.34 3.627a20.11 20.11 0 0 1-1.989 2.692l-.936.936c-.234-.234-.468-.585-.936-1.053a25.822 25.822 0 0 1-1.99-2.575c-.936-1.287-1.755-2.457-2.457-3.627a31.523 31.523 0 0 1-1.989-3.979 10.845 10.845 0 0 1-.936-3.979A9.412 9.412 0 0 1 2.692 2.34Zm3.745 7.841a3.117 3.117 0 1 0-.819-2.106 2.82 2.82 0 0 0 .818 2.106Z" fill="#e0007a"/></svg>