<svg xmlns="http://www.w3.org/2000/svg" viewBox="0 0 500 500"><defs><style>.b{fill:#eb008b;}.c{fill:#eb008c;}.d{fill:#eec9d0;}.e{fill:#eec7ce;}</style></defs><g><circle class="d" cx="250" cy="233.89" r="183.89"/><path class="c" d="M250,421.77c-103.6,0-187.89-84.29-187.89-187.89S146.4,46,250,46s187.89,84.29,187.89,187.89-84.29,187.89-187.89,187.89Zm0-367.77c-99.19,0-179.89,80.7-179.89,179.89s80.7,179.89,179.89,179.89,179.89-80.7,179.89-179.89S349.19,54,250,54Z"/></g><circle class="b" cx="250" cy="419.19" r="30.81"/><g><ellipse class="e" cx="250" cy="187.28" rx="46.64" ry="51.81"/><path class="c" d="M250,243.08c-27.92,0-50.64-25.04-50.64-55.81s22.72-55.81,50.64-55.81,50.64,25.04,50.64,55.81-22.72,55.81-50.64,55.81Zm0-103.61c-23.51,0-42.64,21.45-42.64,47.81s19.13,47.81,42.64,47.81,42.64-21.45,42.64-47.81-19.13-47.81-42.64-47.81Z"/></g><g><path class="e" d="M276.37,253l61.57,29.28v42.1H162.06v-42.1l61.57-29.28h0c16.16,9.97,36.57,9.97,52.73,0h0Z"/><path class="c" d="M341.94,328.37H158.06v-48.63l65.82-31.29,1.85,1.14c14.97,9.23,33.56,9.23,48.53,0l1.85-1.14,65.82,31.29v48.63Zm-175.88-8h167.88v-35.57l-57.37-27.28c-16.57,9.33-36.56,9.33-53.13,0l-57.37,27.28v35.57Z"/></g></svg>