<svg xmlns="http://www.w3.org/2000/svg" viewBox="0 0 500 500"><defs><style>.bb{fill:#eb008c;}.cc{fill:#eec9d0;}</style></defs><g><circle class="cc" cx="250" cy="234.54" r="184.54"/><path class="bb" d="M250,423.08c-103.96,0-188.54-84.58-188.54-188.54S146.04,46,250,46s188.54,84.58,188.54,188.54-84.58,188.54-188.54,188.54Zm0-369.08c-99.55,0-180.54,80.99-180.54,180.54s80.99,180.54,180.54,180.54,180.54-80.99,180.54-180.54S349.55,54,250,54Z"/></g><path class="bb" d="M342.33,322.17H157.67c-19.04,0-34.53-15.49-34.53-34.53v-114.3c0-19.04,15.49-34.53,34.53-34.53h184.65c19.04,0,34.53,15.49,34.53,34.53v114.3c0,19.04-15.49,34.53-34.53,34.53ZM157.67,146.8c-14.63,0-26.53,11.9-26.53,26.53v114.3c0,14.63,11.9,26.53,26.53,26.53h184.65c14.63,0,26.53-11.9,26.53-26.53v-114.3c0-14.63-11.9-26.53-26.53-26.53H157.67Z"/><polygon class="bb" points="250 272.35 124.62 170.46 129.66 164.25 250 262.04 370.34 164.25 375.38 170.46 250 272.35"/><rect class="bb" x="119.7" y="262.78" width="104.21" height="8" transform="translate(-112.84 126.56) rotate(-30.99)"/><rect class="bb" x="324.19" y="214.67" width="8" height="104.21" transform="translate(-69.51 410.72) rotate(-59)"/><circle class="bb" cx="250" cy="419.08" r="30.92"/></svg>