<svg xmlns="http://www.w3.org/2000/svg" viewBox="0 0 500 500"><defs><style>.bm{fill:#eb008b;}.cm{fill:#eb008c;}.dm{fill:#eec9d0;}</style></defs><g><circle class="dm" cx="250" cy="234.54" r="184.54"/><path class="cm" d="M250,423.08c-103.96,0-188.54-84.58-188.54-188.54S146.04,46,250,46s188.54,84.58,188.54,188.54-84.58,188.54-188.54,188.54Zm0-369.08c-99.55,0-180.54,80.99-180.54,180.54s80.99,180.54,180.54,180.54,180.54-80.99,180.54-180.54S349.55,54,250,54Z"/></g><path class="cm" d="M315.89,335.5c-.06,0-.13,0-.19,0-15.38-.19-56.61-5.27-107.06-48.22-51.9-44.19-59.57-93.44-60.46-112.57-.21-4.49,1.72-8.93,5.16-11.89l26.48-25.57c5.95-5.02,14.85-4.57,20.26,1.02l28.83,29.75c5.51,5.69,5.6,14.69,.2,20.48l-13.15,14.1c-2.1,2.26-2.7,5.48-1.52,8.21,13.27,30.65,40.65,48.7,55.79,56.74,2.98,1.58,6.72,.99,9.11-1.44l12.52-12.74c5.56-5.66,14.56-5.96,20.49-.69l34.5,30.7c5.93,5.28,6.67,14.25,1.69,20.44l-21.05,26.13c-2.84,3.53-7.07,5.54-11.61,5.54ZM185.06,143.29l-26.46,25.55c-1.62,1.37-2.53,3.42-2.44,5.49,.84,18.08,8.14,64.69,57.65,106.85,48.46,41.26,87.46,46.13,101.97,46.31,.03,0,.06,0,.09,0,2.11,0,4.07-.93,5.38-2.56l21.05-26.13c2.3-2.86,1.96-7-.78-9.44l-34.5-30.7c-2.74-2.44-6.9-2.3-9.46,.32l-12.52,12.74c-4.85,4.93-12.48,6.12-18.57,2.9-16.07-8.53-45.15-27.74-59.38-60.62-2.45-5.65-1.27-12.26,3.01-16.84l13.15-14.1c2.5-2.68,2.46-6.83-.09-9.46l-28.83-29.75c-2.47-2.55-6.52-2.78-9.27-.55Z"/><circle class="bm" cx="247.41" cy="419.08" r="30.92"/></svg>