<svg data-name="Layer 2" xmlns="http://www.w3.org/2000/svg" viewBox="0 0 500 500"><defs><style>.cls-1{fill:#eec9d0;}.cls-2{fill:#eb008c;}.cls-3{fill:#eb008b;}</style></defs><circle class="cls-1" cx="250" cy="233.89" r="183.89"/><path class="cls-2" d="M250,421.77c-103.6,0-187.89-84.28-187.89-187.88S146.4,46,250,46s187.89,84.29,187.89,187.89S353.6,421.77,250,421.77ZM250,54C150.81,54,70.11,134.7,70.11,233.89S150.81,413.77,250,413.77s179.89-80.69,179.89-179.88S349.19,54,250,54Z"/><path class="cls-2" d="M250,250.65a44.44,44.44,0,1,1,44.44-44.44A44.49,44.49,0,0,1,250,250.65Zm0-81.88a37.44,37.44,0,1,0,37.44,37.44A37.48,37.48,0,0,0,250,168.77Z"/><path class="cls-2" d="M250,332.8l-2-1.41c-11.23-7.9-67.51-50.52-73.05-114.15a77.1,77.1,0,0,1-.43-8,75.49,75.49,0,0,1,151,0,76.43,76.43,0,0,1-.44,8.08c-5.53,63.57-61.8,106.19-73,114.09Zm0-192.07a68.57,68.57,0,0,0-68.49,68.49,70.46,70.46,0,0,0,.4,7.34c5,57.71,55.89,98.61,68.1,107.65,12.21-9,63.06-49.93,68.07-107.58a70.14,70.14,0,0,0,.41-7.41A68.57,68.57,0,0,0,250,140.73Z"/><circle class="cls-3" cx="250" cy="419.19" r="30.81"/></svg>