<svg xmlns="http://www.w3.org/2000/svg" width="36.349" height="34.576" viewBox="0 0 36.349 34.576"><path d="M49.494,38.082A11.094,11.094,0,0,0,38.412,27H26.887a.443.443,0,1,0,0,.887H38.412a10.2,10.2,0,1,1,0,20.391H26.443a.443.443,0,1,0,0,.887H38.412A11.094,11.094,0,0,0,49.494,38.082Z" transform="translate(-15.805 -17.248)" fill="#1d1b1e"/><path d="M52.9,17.818l1.7-1.7a.443.443,0,0,0,0-.627l-2.5-2.5a.443.443,0,0,0-.626,0l-1.7,1.7a13.672,13.672,0,0,0-5.356-2.33V9.433h1.773a.888.888,0,0,0,.887-.887V5.887A.888.888,0,0,0,46.185,5H37.319a.888.888,0,0,0-.887.887v2.66a.888.888,0,0,0,.887.887h1.773v2.66H32.887a.443.443,0,1,0,0,.887h8.866a12.855,12.855,0,1,1,0,25.71H32.443a.443.443,0,0,0,0,.887h9.309A13.731,13.731,0,0,0,52.9,17.818Zm-2.421-2.595,1.3-1.3L53.662,15.8l-1.3,1.3A15.965,15.965,0,0,0,50.482,15.223ZM37.319,5.887h8.866v2.66H37.319Zm2.66,6.206V9.433h3.546v2.776a14.822,14.822,0,0,0-1.773-.116Z" transform="translate(-19.145 -5)" fill="#1d1b1e"/><path d="M16.3,51.443A.443.443,0,0,0,15.855,51H3.443a.443.443,0,1,0,0,.887H15.855A.443.443,0,0,0,16.3,51.443Z" transform="translate(-3 -30.609)" fill="#1d1b1e"/><path d="M20.968,57.443A.443.443,0,0,0,20.525,57H9.443a.443.443,0,1,0,0,.887H20.525A.443.443,0,0,0,20.968,57.443Z" transform="translate(-6.34 -33.95)" fill="#1d1b1e"/><path d="M25.639,63.443A.443.443,0,0,0,25.2,63H15.443a.443.443,0,1,0,0,.887H25.2A.443.443,0,0,0,25.639,63.443Z" transform="translate(-9.681 -37.29)" fill="#1d1b1e"/><path d="M30.752,69.443A.443.443,0,0,0,30.309,69H21.443a.443.443,0,1,0,0,.887h8.866A.443.443,0,0,0,30.752,69.443Z" transform="translate(-13.021 -40.63)" fill="#1d1b1e"/><path d="M9.443,45.887H20.525a.443.443,0,1,0,0-.887H9.443a.443.443,0,1,0,0,.887Z" transform="translate(-6.34 -27.269)" fill="#1d1b1e"/><path d="M15.443,39.887H25.2a.443.443,0,1,0,0-.887H15.443a.443.443,0,1,0,0,.887Z" transform="translate(-9.681 -23.929)" fill="#1d1b1e"/><path d="M21.443,33.887h8.866a.443.443,0,1,0,0-.887H21.443a.443.443,0,0,0,0,.887Z" transform="translate(-13.021 -20.588)" fill="#1d1b1e"/><path d="M53.887,32.33v-.887a.443.443,0,1,0-.887,0v.887a.443.443,0,0,0,.887,0Z" transform="translate(-30.836 -19.475)" fill="#1d1b1e"/><path d="M53,69.443v.887a.443.443,0,0,0,.887,0v-.887a.443.443,0,0,0-.887,0Z" transform="translate(-30.836 -40.63)" fill="#1d1b1e"/><path d="M62.221,66.648a.443.443,0,0,0-.162.606l.443.768a.443.443,0,0,0,.768-.443l-.443-.768A.443.443,0,0,0,62.221,66.648Z" transform="translate(-35.846 -39.287)" fill="#1d1b1e"/><path d="M68.8,60.82l.767.443a.443.443,0,1,0,.443-.767l-.767-.443a.443.443,0,1,0-.443.767Z" transform="translate(-39.503 -35.613)" fill="#1d1b1e"/><path d="M71,51.443a.443.443,0,0,0,.443.443h.887a.443.443,0,0,0,0-.887h-.887A.443.443,0,0,0,71,51.443Z" transform="translate(-40.857 -30.609)" fill="#1d1b1e"/><path d="M69.566,41.053,68.8,41.5a.443.443,0,1,0,.443.767l.767-.443a.443.443,0,1,0-.443-.767Z" transform="translate(-39.503 -25.035)" fill="#1d1b1e"/><path d="M47.18,49.45a.443.443,0,0,0,.606.161l1.121-.649a1.761,1.761,0,0,0,2.965-1.711l3.654-2.109a.443.443,0,1,0-.443-.768L51.433,46.48a1.761,1.761,0,0,0-2.965,1.712l-1.127.653a.443.443,0,0,0-.161.606Zm2.99-2.616a.887.887,0,1,1-.887.887A.887.887,0,0,1,50.17,46.834Z" transform="translate(-27.563 -26.887)" fill="#1d1b1e"/><path d="M62.827,35.112l.443-.768A.443.443,0,1,0,62.5,33.9l-.443.768a.443.443,0,0,0,.768.443Z" transform="translate(-35.846 -20.966)" fill="#1d1b1e"/></svg>